/* XPM */
static char *result[] = {
/* columns rows colors chars-per-pixel */
"60 52 171 2 ",
"   c black",
".  c #010101",
"X  c #020202",
"o  c #040404",
"O  c #050404",
"+  c gray2",
"@  c gray3",
"#  c gray4",
"$  c #0B0B0B",
"%  c gray5",
"&  c gray6",
"*  c #100B0B",
"=  c #101010",
"-  c #131313",
";  c gray8",
":  c gray9",
">  c gray10",
",  c #1B1B1B",
"<  c gray11",
"1  c #1D1D1D",
"2  c #1E1E1E",
"3  c #241616",
"4  c #221919",
"5  c #202020",
"6  c gray13",
"7  c #232323",
"8  c gray14",
"9  c #252525",
"0  c gray16",
"q  c #2A2A2A",
"w  c gray17",
"e  c #2C2C2C",
"r  c #2D2D2D",
"t  c #313131",
"y  c gray20",
"u  c #343434",
"i  c #353535",
"p  c gray21",
"a  c #373737",
"s  c gray22",
"d  c #393939",
"f  c gray23",
"g  c gray24",
"h  c #3E3E3E",
"j  c #3F3F3F",
"k  c #414141",
"l  c #434343",
"z  c #444444",
"x  c gray27",
"c  c #484848",
"v  c gray29",
"b  c #4B4B4B",
"n  c #4C4C4C",
"m  c gray30",
"M  c gray31",
"N  c #515151",
"B  c #535353",
"V  c #585858",
"C  c #5B5B5B",
"Z  c gray36",
"A  c #5F5F5F",
"S  c #5D6F73",
"D  c #606060",
"F  c gray38",
"G  c gray39",
"H  c #646464",
"J  c #656565",
"K  c gray40",
"L  c #676767",
"P  c #646768",
"I  c #646869",
"U  c #686868",
"Y  c #6A6A6A",
"T  c #6C6C6C",
"R  c gray43",
"E  c gray44",
"W  c #717171",
"Q  c #727272",
"!  c gray45",
"~  c #747474",
"^  c #767676",
"/  c #777777",
"(  c #797979",
")  c gray48",
"_  c #7B7B7B",
"`  c #7C7C7C",
"'  c #7E7E7E",
"]  c gray50",
"[  c #FF6F6F",
"{  c #007B9A",
"}  c #017B9A",
"|  c #007C9B",
" . c #527A84",
".. c #00809F",
"X. c #0083A3",
"o. c #278FAA",
"O. c #2B91AB",
"+. c #3597AF",
"@. c #458797",
"#. c #00B0DC",
"$. c #03B2DD",
"%. c #00B3DF",
"&. c #17B5DB",
"*. c #21AACD",
"=. c #00B3E0",
"-. c #13BBE5",
";. c #00C0F0",
":. c #00C0F1",
">. c #00CCFF",
",. c #35C9EE",
"<. c #5EDFFF",
"1. c #72D5EE",
"2. c #808080",
"3. c #818181",
"4. c gray51",
"5. c #838383",
"6. c #848484",
"7. c gray52",
"8. c #868686",
"9. c gray53",
"0. c #888888",
"q. c #898989",
"w. c gray54",
"e. c gray56",
"r. c gray57",
"t. c #929292",
"y. c #939393",
"u. c #959595",
"i. c gray59",
"p. c #979797",
"a. c #989898",
"s. c gray60",
"d. c #9A9A9A",
"f. c #A2A2A2",
"g. c #A5A5A5",
"h. c #A7A7A7",
"j. c #AAAAAA",
"k. c gray67",
"l. c gray69",
"z. c gray70",
"x. c #B7B7B7",
"c. c gray72",
"v. c gray",
"b. c gray75",
"n. c #FF9999",
"m. c #FFA3A3",
"M. c #FFBFBF",
"N. c #9CEBFF",
"B. c gray76",
"V. c #C5C5C5",
"C. c #C6C6C6",
"Z. c #C8C8C8",
"A. c gray79",
"S. c #CBCBCB",
"D. c gray80",
"F. c gray81",
"G. c #D2D2D2",
"H. c gray83",
"J. c #D5D5D5",
"K. c #D7D7D7",
"L. c #D8D8D8",
"P. c #DADADA",
"I. c gray86",
"U. c gainsboro",
"Y. c #DFDFDF",
"T. c gray89",
"R. c gray90",
"E. c #E6E6E6",
"W. c #FEFFFF",
"Q. c white",
"!. c None",
/* pixels */
"!.!.!.!.!.!.!.!.!.!.!.!.!.!.!.!.!.!.!.!.!.!.!.!.!.!.!.!.!.!.!.!.!.!.!.!.!.!.!.!.!.!.!.!.!.!.!.!.!.!.!.!.!.!.!.!.!.!.!.!.",
"!.!.!.!.!.!.!.!.!.!.!.!.!.!.!.!.!.!.!.!.!.!.!.!.!.!.!.!.!.!.!.!.!.!.!.!.!.!.!.!.!.!.!.!.!.!.!.!.!.!.!.!.!.!.!.!.!.!.!.!.",
"!.!.!.!.!.!.!.!.!.!.!.!.!.!.!.!.!.!.!.!.!.!.!.!.!.!.!.!.!.!.!.!.!.!.!.!.!.!.!.!.!.!.!.!.!.!.!.!.!.!.!.!.!.!.!.!.!.!.!.!.",
"!.!.!.!.!.!.!.!.!.!.!.!.!.!.!.!.!.!.!.!.!.!.    !.!.!.!.!.!.!.!.!.!.!.!.!.!.!.!.!.!.!.!.!.!.!.!.!.!.!.!.!.!.!.!.!.!.!.!.",
"!.!.!.!.!.!.!.!.!.!.!.!.!.!.!.!.!.!.!.!.!.  B m N   !.!.!.!.!.!.!.!.!.!.!.!.!.!.!.!.!.!.!.!.!.!.!.!.!.!.!.!.!.!.!.!.!.!.",
"!.!.!.!.!.!.!.!.!.!.!.!.!.!.!.!.!.!.!.!.!.1 y y y b m   !.!.!.!.!.!.!.!.!.!.!.!.!.!.!.!.!.!.!.!.!.!.!.!.!.!.!.!.!.!.!.!.",
"!.!.!.!.!.!.!.!.!.!.!.!.!.!.!.!.!.!.!.!.  r y y v.5.T s.  !.!.!.!.!.!.!.!.!.!.!.    m m m !.!.!.!.!.!.!.!.!.!.!.!.!.!.!.",
"!.!.!.!.!.!.!.!.!.!.!.!.!.!.!.!.!.!.!.!.  t y u D.D.D.A.i.!.!.!.!.!.!.!.!.!.!.  s.m m l a   !.!.!.!.!.!.!.!.!.!.!.!.!.!.",
"!.!.!.!.!.!.!.!.!.!.!.!.!.!.!.!.!.!.!.!.  t y K.E.E.D.D.D.  !.!.!.!.!.!.!.!.: s.N a y h D.  !.!.!.!.!.!.!.!.!.!.!.!.!.!.",
"!.!.!.!.!.!.!.!.!.!.!.!.!.!.!.!.!.!.!.!.% e y E.E.E.E.H.D.g.!.!.!.!.!.!.!.# s.5.5.D R.E.D.  !.!.!.!.!.!.!.!.!.!.!.!.!.!.",
"!.!.!.!.!.!.!.!.!.!.!.!.!.!.!.!.!.!.!.!.2 8 h E.E.E.E.E.D.D.          !.  s.5.5.5.E.E.E.D.  !.!.!.!.!.!.!.!.!.!.!.!.!.!.",
"!.!.!.!.!.!.!.!.!.!.!.!.!.!.!.!.!.!.!.!.9 K 5.E.E.E.E.E.E.D.s.y y ! s.y 0   s 5.E.E.E.E.D.  !.!.!.!.!.!.!.!.!.!.!.!.!.!.",
"!.!.!.!.!.!.!.!.!.!.!.!.!.!.!.!.!.!.!.!.= K 5.E.E.E.E.E.E.D.3.g y z 5.y B C y   I.E.E.E.D.  !.!.!.!.!.!.!.!.!.!.!.!.!.!.",
"!.!.!.!.!.!.!.!.!.!.!.!.!.!.!.!.!.!.!.!.  K 5.E.E.E.E.E.E.D.y 5.y p 5.y 2.f y u.q G E.E.D.  !.!.!.!.!.!.!.!.!.!.!.!.!.!.",
"!.!.!.!.!.!.!.!.!.!.!.!.!.!.!.!.!.!.!.!.  K 5.K.E.E.E.E.E.B.y 5.y y 5.y 5.y y 6.y y w.E.D.!.!.!.!.!.!.!.!.!.!.!.!.!.!.!.",
"!.!.!.!.!.!.!.!.!.!.!.!.!.!.!.!.!.!.!.!.  K Y 5.E.E.E.E.E.5.y U V y 5.y 5.y k ' y s.- E./ !.!.!.!.!.!.!.!.!.!.!.!.!.!.!.",
"!.!.!.!.!.!.!.!.!.!.!.!.!.!.!.!.!.!.!.!.  K K 5.E.E.E.E.5.5.5.y 5.y 5.K 5.y 5.y ~ 0.s.    !.!.!.!.!.!.!.!.!.!.!.!.!.!.!.",
"!.!.!.!.!.!.!.!.!.!.!.!.!.!.!.!.!.!.!.!.!.  K 3.5.E.E.4.5.5.5.5.5.y 5.3.5.y 5.i 5.5.s.9.  !.!.!.!.!.!.!.!.!.!.!.!.!.!.!.",
"!.!.!.!.!.!.!.!.!.!.!.!.!.!.!.!.!.!.!.!.    K K 5.5.5.5.5.5.5.5.5.R 5.5.5._ R 5.5.5.5.s.  !.!.!.!.!.!.!.!.!.!.!.!.!.!.!.",
"!.!.!.!.!.!.!.!.!.!.!.!.!.!.!.!.!.!.!.!.+ 5.    4.5.5.5.5.5.5.5.5.5.5.5.5.5.5.5.5.5.5.s.2 !.!.!.!.!.!.!.!.!.!.!.!.!.!.!.",
"!.!.!.!.!.!.!.!.!.!.!.!.!.!.!.!.!.!.!.!.4.5.5.5.5.5.5.5.5.5.5.5.5.5.5.5.5.5.5.5.5.5.5.0.s.!.!.!.!.!.!.!.!.!.!.!.!.!.!.!.",
"!.!.!.!.!.!.!.!.!.!.!.!.!.!.!.!.!.!.!.  5.5.5.5.5.5.5.5.5.5.5.5.5.5.5.5.5.5.5.5.5.5.5.5.s.  !.!.!.!.!.!.!.!.!.!.!.!.!.!.",
"!.!.!.!.!.!.!.!.!.!.!.!.!.!.!.!.!.!.  5.5.5.5.5.5.5.K K K 5.5.5.5.5.5.5.5.5.5.5.5.5.5.5.s.  !.!.!.!.!.!.!.!.!.!.!.!.!.!.",
"!.!.!.!.!.!.!.!.!.!.!.!.!.!.!.!.!.  ] 5.5.5.5.5.5.K I =.1.+.5.5.5.5.5.5.5.5.5.5.5.^ K ~ s.  !.!.!.!.!.!.!.!.!.!.!.!.!.!.",
"!.!.!.!.!.!.!.!.!.!.!.!.!.!.!.!.!.v 5.5.5.5.5.5.5.K #.{ Q.Q.U 5.5.5.5.5.5.5.5.5.K :.$.,.K a.!.!.!.!.!.!.!.!.!.!.!.!.!.!.",
"!.!.!.!.!.!.!.!.!.!.!.!.!.!.!.!.!.Z J M u x 5.5.5.K #.{ o.{ K 5.5.Y.R.R.P.5.5.5.;.X.Q.Q. .s.  !.!.!.!.!.!.!.!.!.!.!.!.!.",
"!.!.!.!.!.!.!.!.!.!.!.!.!.!.!.!.!.  > e 5.4.5.5.5.K N.<...>.h.E.E.E.E.k.4 * E.q.%.{ } O.&.5.^ !.!.!.!.!.!.!.!.!.!.!.!.!.",
"!.!.!.!.!.!.!.!.!.!.!.!.!.!.!.!.!.!.  6 > 5.5.5.5.5.K P @.J.E.E.E.E.E.[ n.M.m.E.-.W.| >.K 5.,   !.!.!.!.!.!.!.!.!.!.!.!.",
"!.!.!.!.!.!.!.!.!.!.!.!.!.!.!.!.!.!.!.  K H > 5.5.5.5.5.6.E.E.E.E.E.E.E.O 3 I.E.E.S *.K 4.G   !.!.!.!.!.!.!.!.!.!.!.!.!.",
"!.!.!.!.!.!.!.!.!.!.!.!.!.!.!.!.!.!.!.!.  ; M K K Y 5.5.R.E.E.E.E.E.U.E.Q E.E.E.E.l.5.! ,   !.!.!.!.!.!.!.!.!.!.!.!.!.!.",
"!.!.!.!.!.!.!.!.!.!.!.!.!.!.!.!.!.!.!.!.!.!.  < K K K K S.D.G.T.E.E.E.] E.7 E.E.E.j.K K . !.!.!.!.!.!.!.!.!.!.!.!.!.!.!.",
"!.!.!.!.!.!.!.!.!.!.!.!.!.!.!.!.!.!.!.!.!.!.!.!.    $ H L D.D.D.D.D.D.D.D.D.D.D.D.K K   !.!.!.!.!.!.!.!.!.!.!.!.!.!.!.!.",
"!.!.!.!.!.!.!.!.!.!.!.!.!.!.!.!.!.!.!.!.!.!.!.!.!.!.!.!.5       6 C.D.D.D.D.D.d.%   !.!.!.!.!.!.!.!.!.!.!.!.!.!.!.!.!.!.",
"!.!.!.!.!.!.!.!.!.!.!.!.!.!.!.!.!.!.!.!.!.!.!.!.!.!.!.+ 5.K 5.E.E.E.= !.!.!.!.!.!.!.!.!.!.!.!.!.!.!.!.!.!.!.!.!.!.!.!.!.",
"!.!.!.!.!.!.!.!.!.!.!.!.!.!.!.!.!.!.!.!.!.  n   !.!.& e.5.. E.E.E.E.] !.!.!.!.!.!.!.!.!.!.!.!.!.!.!.!.!.!.!.!.!.!.!.!.!.",
"!.!.!.!.!.!.!.!.!.!.!.!.!.!.!.!.!.!.!.!.g 5.4.5.j   t r.5.. E.E.E.E.x.!.!.!.!.!.!.!.!.!.!.!.!.!.!.!.!.!.!.!.!.!.!.!.!.!.",
"!.!.!.!.!.!.!.!.!.!.!.!.!.!.!.!.d p j t.5.A     5.B w 8.5.V E.E.E.E.J.!.!.!.!.!.!.!.!.!.!.!.!.!.!.!.!.!.!.!.!.!.!.!.!.!.",
"!.!.!.!.!.!.!.!.!.!.!.!.!.!.!.!.y y y R G !.!.!.s u c e.5.K U.E.E.E.Z.!.!.!.!.!.!.!.!.!.!.!.!.!.!.!.!.!.!.!.!.!.!.!.!.!.",
"!.!.!.!.!.!.!.!.!.!.!.!.!.!.!.!.. y y i !.!.!.!.  K 5.p.5.f.+ E.E.E.y.!.!.!.!.!.!.!.!.!.!.!.!.!.!.!.!.!.!.!.!.!.!.!.!.!.",
"!.!.!.!.!.!.!.!.!.!.!.!.!.!.!.!.!.!.!.!.!.!.!.!.  K E @ F.z L.E.E.E.J !.!.!.!.!.!.!.!.!.!.!.!.!.!.!.!.!.!.!.!.!.!.!.!.!.",
"!.!.!.!.!.!.!.!.!.!.!.!.!.!.!.!.!.!.!.!.!.!.!.!.!.r K ( U.E.E.E.E.E.  !.!.!.!.!.!.!.!.!.!.!.!.!.!.!.!.!.!.!.!.!.!.!.!.!.",
"!.!.!.!.!.!.!.!.!.!.!.!.!.!.!.!.!.!.!.!.!.!.!.  s.5.5.K K 7.E.E.V.W   !.!.!.!.!.!.!.!.!.!.!.!.!.!.!.!.!.!.!.!.!.!.!.!.!.",
"!.!.!.!.!.!.!.!.!.!.!.!.!.!.!.!.!.!.!.!.!.!.  s.s.5.5.  K K K K z p a.!.!.!.!.!.!.!.!.!.!.!.!.!.!.!.!.!.!.!.!.!.!.!.!.!.",
"!.!.!.!.!.!.!.!.!.!.!.!.!.!.!.!.!.!.!.!.!.  s.s.5.5.^ !.!.!.  ` 5.6.s.k !.!.!.!.!.!.!.!.!.!.!.!.!.!.!.!.!.!.!.!.!.!.!.!.",
"!.!.!.!.!.!.!.!.!.!.!.!.!.!.!.!.!.!.!.!.!.e.s.8.5.5.F !.!.!.!.K 5.5.s.s.  !.!.!.!.!.!.!.!.!.!.!.!.!.!.!.!.!.!.!.!.!.!.!.",
"!.!.!.!.!.!.!.!.!.!.!.!.!.!.!.!.!.!.!.!.o s.y.5.5.L   !.!.!.!.X 5.5.5.s.s.!.!.!.!.!.!.!.!.!.!.!.!.!.!.!.!.!.!.!.!.!.!.!.",
"!.!.!.!.!.!.!.!.!.!.!.!.!.!.!.!.!.!.!.!.b.8.5.5.' p !.!.!.!.!.!.K 5.5.5.i.  !.!.!.!.!.!.!.!.!.!.!.!.!.!.!.!.!.!.!.!.!.!.",
"!.!.!.!.!.!.!.!.!.!.!.!.!.!.!.!.!.!.!.!.  D.f.K K !.!.!.!.!.!.!.X K 5.) D.  !.!.!.!.!.!.!.!.!.!.!.!.!.!.!.!.!.!.!.!.!.!.",
"!.!.!.!.!.!.!.!.!.!.!.!.!.!.!.!.!.!.!.!.!.  k.c.  !.!.!.!.!.!.!.!.z.D.D.. !.!.!.!.!.!.!.!.!.!.!.!.!.!.!.!.!.!.!.!.!.!.!.",
"!.!.!.!.!.!.!.!.!.!.!.!.!.!.!.!.!.!.!.!.!.!.!.!.!.!.!.!.!.!.!.!.!.!.  !.!.!.!.!.!.!.!.!.!.!.!.!.!.!.!.!.!.!.!.!.!.!.!.!.",
"!.!.!.!.!.!.!.!.!.!.!.!.!.!.!.!.!.!.!.!.!.!.!.!.!.!.!.!.!.!.!.!.!.!.!.!.!.!.!.!.!.!.!.!.!.!.!.!.!.!.!.!.!.!.!.!.!.!.!.!.",
"!.!.!.!.!.!.!.!.!.!.!.!.!.!.!.!.!.!.!.!.!.!.!.!.!.!.!.!.!.!.!.!.!.!.!.!.!.!.!.!.!.!.!.!.!.!.!.!.!.!.!.!.!.!.!.!.!.!.!.!."
};
